name C:\Users\u0101727\Documents\MyRepositories\paper-ad\predictivesimulations_2d/Results/PredSim_2D/IK_c25.mot
datacolumns 11
datarows 21
range 0.48330001 0.62975456
endheader
time	pelvis_tilt	pelvis_tx	pelvis_ty	hip_flexion_l	hip_flexion_r	knee_angle_l	knee_angle_r	ankle_angle_l	ankle_angle_r	lumbar_extension	
          0.48330001	        -12.14475974	          0.64419945	          0.87014754	         31.91190005	         -5.89290604	        -40.49651579	         -2.75267381	         14.82754405	         18.08097096	          7.00421070	
          0.49062274	        -12.11657097	          0.65493105	          0.87139613	         30.94727671	         -5.78882641	        -40.11727694	         -4.24084217	         14.76996696	         17.17573061	          7.13520572	
          0.49794546	        -12.07963686	          0.66571423	          0.87346598	         29.88786016	         -5.59546767	        -39.53503259	         -5.84719228	         14.38666497	         15.91166855	          7.27619301	
          0.50526819	        -12.03215372	          0.67655717	          0.87636671	         28.74173021	         -5.30426410	        -38.76558444	         -7.57666635	         13.67918066	         14.26643086	          7.42666057	
          0.51259092	        -11.97226324	          0.68746462	          0.88008559	         27.51883851	         -4.90447175	        -37.82781189	         -9.43571990	         12.64894142	         12.21581429	          7.58547815	
          0.51991365	        -11.89830284	          0.69843593	          0.88458911	         26.23091576	         -4.38290407	        -36.74200030	        -11.42946051	         11.29581894	          9.73227299	          7.75083681	
          0.52723637	        -11.80902883	          0.70946406	          0.88981930	         24.89124132	         -3.72680598	        -35.53057671	        -13.57064595	          9.62541701	          6.79951049	          7.92019692	
          0.53455910	        -11.70430521	          0.72052015	          0.89568695	         23.51995619	         -2.91712076	        -34.22518582	        -15.84346562	          7.64585451	          3.37536403	          8.08881342	
          0.54188183	        -11.58552798	          0.73157358	          0.90207517	         22.14174802	         -1.95263099	        -32.86336350	        -18.25856663	          5.36868631	         -0.56752354	          8.25239079	
          0.54920455	        -11.45722551	          0.74258154	          0.90883362	         20.78885389	         -0.86907850	        -31.48745910	        -20.64588559	          2.82004684	         -4.53905008	          8.40739132	
          0.55652728	        -11.32593148	          0.75348579	          0.91576597	         19.49174822	          0.29009781	        -30.14530167	        -22.85120566	          0.09361255	         -8.07416843	          8.54982161	
          0.56385001	        -11.19649851	          0.76426603	          0.92271519	         18.24919217	          1.50335783	        -28.83050414	        -24.92840488	         -2.72973080	        -11.19824810	          8.67848651	
          0.57117274	        -11.07211294	          0.77491824	          0.92959106	         17.05366789	          2.76461458	        -27.57617746	        -26.87429190	         -5.56595185	        -13.93363551	          8.79185327	
          0.57849546	        -10.95955259	          0.78537094	          0.93627411	         15.96522168	          4.06550693	        -26.34147850	        -28.66054712	         -7.98445669	        -16.30575023	          8.88251738	
          0.58581819	        -10.86517200	          0.79561599	          0.94254002	         14.95106217	          5.39885922	        -25.03936765	        -30.28655814	         -9.84160441	        -18.33428224	          8.95074706	
          0.59314092	        -10.79032142	          0.80569465	          0.94823198	         13.93667138	          6.76081476	        -23.67485118	        -31.77389875	        -11.36162440	        -20.03304056	          9.00012862	
          0.60046365	        -10.73545387	          0.81558970	          0.95334040	         12.93999962	          8.14916936	        -22.24244217	        -33.11749441	        -12.56190877	        -21.42022935	          9.02816987	
          0.60778637	        -10.70031350	          0.82530188	          0.95786472	         11.96652227	          9.56025129	        -20.75709988	        -34.31290736	        -13.44370437	        -22.51283362	          9.03474026	
          0.61510910	        -10.68422532	          0.83483666	          0.96180506	         11.02002709	         10.98989444	        -19.23331985	        -35.35747992	        -14.01295992	        -23.32883543	          9.02036132	
          0.62243183	        -10.68619734	          0.84420241	          0.96516214	         10.10329545	         12.43360430	        -17.68472850	        -36.25027744	        -14.28417238	        -23.88540991	          8.98588632	
          0.62975456	        -10.70505016	          0.85340961	          0.96793722	          9.21756291	         13.88694949	        -16.12203948	        -36.99203903	        -14.27994259	        -24.19998368	          8.93244554	
